# xmcd
#
# Track frame offsets:
#	150
#	13005
#	22189
#	34411
#	46380
#	61497
#	70934
#	81187
#	92995
#	105196
#
# Disc length: 1569
#
# Revision: 1
# Processed by: cddbd v1.5.1PL0 Copyright (c) Steve Scherf et al.
# Submitted via: audiograbber 1.83.01
# Normalized: r0:DSETVAR1
#
DISCID=82061f0a
DTITLE=Various Artist - Great Country Classics
DYEAR=2001
DGENRE=Country
TTITLE0=Anne Murray - All The Time
TTITLE1=Jim Reeves - Billy Bayou
TTITLE2=Johnny Paycheck - All the Time
TTITLE3=Patsy Cline - Today Tomorrow and Forever
TTITLE4=Willie Nelson - Face of a Fighter
TTITLE5=Loretta Lynn - Y'all Come
TTITLE6=Bob Wills - Sooner or Later
TTITLE7=Roger Miller - Little Green Apples
TTITLE8=Billie Joe Spears - Misty Blue
TTITLE9=Freddy Fender - Almost Persuaded
EXTD=
EXTT0=
EXTT1=
EXTT2=
EXTT3=
EXTT4=
EXTT5=
EXTT6=
EXTT7=
EXTT8=
EXTT9=
PLAYORDER=
